<svg preserveAspectRatio="none" width="100%" height="100%" overflow="visible" style="display: block;" viewBox="0 0 16 16" fill="none" xmlns="http://www.w3.org/2000/svg">
<g id="Frame">
<path id="Vector" d="M12.6573 1.00868H3.4375C2.12797 1.00868 1.0625 2.07415 1.0625 3.38368V12.6035C1.0625 13.9131 2.12797 14.9785 3.4375 14.9785H12.6573C13.9669 14.9785 15.0323 13.9131 15.0323 12.6035V3.38368C15.0323 2.07415 13.9669 1.00868 12.6573 1.00868ZM3.4375 2.00868H12.6573C13.4155 2.00868 14.0323 2.62556 14.0323 3.38368V4.47384H2.0625V3.38368C2.0625 2.62556 2.67938 2.00868 3.4375 2.00868ZM12.6573 13.9785H3.4375C2.67938 13.9785 2.0625 13.3616 2.0625 12.6035V5.47384H14.0323V12.6035C14.0323 13.3616 13.4155 13.9785 12.6573 13.9785Z" fill="var(--fill-0, #C4C4C4)"/>
<path id="Vector_2" d="M3.54145 3.99696H5.02879C5.30489 3.99696 5.52879 3.77306 5.52879 3.49696C5.52879 3.22087 5.30489 2.99696 5.02879 2.99696H3.54145C3.26536 2.99696 3.04145 3.22087 3.04145 3.49696C3.04145 3.77306 3.26536 3.99696 3.54145 3.99696ZM12.0005 7.48681H4.00661C3.73051 7.48681 3.50661 7.71071 3.50661 7.98681C3.50661 8.2629 3.73051 8.48681 4.00661 8.48681H12.0005C12.2766 8.48681 12.5005 8.2629 12.5005 7.98681C12.5005 7.71071 12.2766 7.48681 12.0005 7.48681ZM9.02957 10.4831H4.00661C3.73051 10.4831 3.50661 10.707 3.50661 10.9831C3.50661 11.2592 3.73051 11.4831 4.00661 11.4831H9.02957C9.30567 11.4831 9.52957 11.2592 9.52957 10.9831C9.52957 10.707 9.30567 10.4831 9.02957 10.4831Z" fill="var(--fill-0, #C4C4C4)"/>
</g>
</svg>
